<!-- Generated by IcoMoon.io -->
<svg version="1.1" xmlns="http://www.w3.org/2000/svg" width="34" height="32" viewBox="0 0 34 32">
<title>car</title>
<path d="M24.469 5.333c0.748-0 1.484 0.185 2.142 0.538s1.22 0.864 1.634 1.487l0.159 0.26 3.013 5.271h1.756c0.139-0 0.275 0.048 0.382 0.136s0.182 0.211 0.21 0.347l0.012 0.121v0.718c0 0.242-0.072 0.478-0.207 0.678s-0.327 0.355-0.551 0.445l-0.193 0.060c0.566 1.176 0.818 2.479 0.731 3.781l-0.041 0.434-1.095 8.766c-0.086 0.69-0.408 1.33-0.911 1.811s-1.156 0.773-1.85 0.828l-0.239 0.009h-1.688c-0.762 0-1.497-0.288-2.056-0.806s-0.901-1.229-0.959-1.989l-0.008-0.227h-12.089c0 0.762-0.288 1.497-0.806 2.056s-1.229 0.901-1.989 0.959l-0.227 0.007h-1.688c-0.696 0-1.371-0.239-1.91-0.679s-0.911-1.051-1.052-1.733l-0.038-0.236-1.096-8.764c-0.162-1.296 0.015-2.613 0.514-3.82l0.177-0.397-0.036-0.008c-0.234-0.059-0.446-0.186-0.607-0.366s-0.265-0.404-0.298-0.644l-0.011-0.165v-0.718c-0-0.139 0.048-0.274 0.136-0.382s0.211-0.182 0.347-0.21l0.121-0.012h1.757l3.012-5.271c0.371-0.649 0.897-1.197 1.531-1.593s1.356-0.631 2.102-0.681l0.302-0.011h11.605zM30.393 17.477c-0.781 0.856-1.865 1.375-3.022 1.446l-0.311 0.011h-16.785c-0.626 0.004-1.247-0.124-1.821-0.374s-1.089-0.62-1.511-1.082c-0.125 0.457-0.177 0.93-0.156 1.402l0.030 0.355 1.096 8.766h1.688v-1.511c0-0.37 0.136-0.727 0.382-1.004s0.585-0.453 0.952-0.497l0.177-0.011h15.111c0.37 0 0.727 0.136 1.004 0.382s0.453 0.585 0.497 0.953l0.011 0.177v1.511h1.688l1.096-8.766c0.076-0.592 0.032-1.189-0.124-1.758zM9.203 20.29l4.145 2.239c0.564 0.305 0.329 1.162-0.311 1.136l-3.497-0.14c-0.39-0.016-0.759-0.181-1.029-0.463s-0.421-0.657-0.422-1.047v-1.058c-0-0.131 0.034-0.26 0.098-0.373s0.158-0.209 0.27-0.276 0.24-0.104 0.371-0.106c0.131-0.003 0.26 0.029 0.375 0.091l-0.002-0.003zM29.243 20.955v1.059c0 0.39-0.151 0.766-0.421 1.048s-0.639 0.448-1.030 0.463l-3.497 0.139c-0.641 0.026-0.877-0.831-0.311-1.136l4.143-2.236c0.115-0.062 0.245-0.094 0.375-0.091s0.259 0.039 0.371 0.107c0.112 0.067 0.206 0.162 0.27 0.276s0.099 0.241 0.099 0.372zM24.469 8.356h-11.605c-0.266 0-0.528 0.071-0.758 0.204s-0.421 0.326-0.553 0.557l-2.59 4.533c-0.131 0.23-0.2 0.49-0.199 0.755s0.071 0.524 0.204 0.753c0.133 0.229 0.323 0.419 0.553 0.551s0.489 0.202 0.754 0.202h16.785c0.265-0 0.525-0.070 0.754-0.202s0.42-0.322 0.553-0.551 0.203-0.489 0.204-0.753c0.001-0.265-0.068-0.525-0.199-0.755l-2.59-4.533c-0.132-0.232-0.323-0.424-0.554-0.558s-0.491-0.204-0.758-0.204z"></path>
</svg>
