<svg xmlns="http://www.w3.org/2000/svg" aria-hidden="true" style="position:absolute;width:0;height:0;overflow:hidden"><defs><symbol id="icon-active" viewBox="0 0 32 32"><path stroke-linecap="round" stroke-linejoin="round" stroke-width="1.778" d="M27.787 6.147a7.345 7.345 0 0 0-5.187-2.15 7.33 7.33 0 0 0-5.187 2.15L16 7.56l-1.413-1.413a7.333 7.333 0 0 0-10.374 0 7.333 7.333 0 0 0 0 10.374L16 28.308l11.787-11.787a7.345 7.345 0 0 0 2.15-5.187 7.33 7.33 0 0 0-2.15-5.187z"/></symbol><symbol id="icon-car" viewBox="0 0 34 32"><path d="M24.469 5.333a4.531 4.531 0 0 1 3.776 2.025l.159.26 3.013 5.271h1.756a.603.603 0 0 1 .592.483l.012.121v.718a1.211 1.211 0 0 1-.758 1.123l-.193.06a7.558 7.558 0 0 1 .731 3.781l-.041.434-1.095 8.766a3.024 3.024 0 0 1-2.761 2.639l-.239.009h-1.688a3.026 3.026 0 0 1-3.015-2.795l-.008-.227H12.621a3.026 3.026 0 0 1-2.795 3.015l-.227.007H7.911a3.02 3.02 0 0 1-2.962-2.412l-.038-.236-1.096-8.764a7.55 7.55 0 0 1 .514-3.82l.177-.397-.036-.008a1.212 1.212 0 0 1-.905-1.01l-.011-.165v-.718a.605.605 0 0 1 .483-.592l.121-.012h1.757l3.012-5.271a4.527 4.527 0 0 1 3.633-2.274l.302-.011h11.605zm5.924 12.144a4.461 4.461 0 0 1-3.022 1.446l-.311.011H10.275a4.462 4.462 0 0 1-3.332-1.456c-.125.457-.177.93-.156 1.402l.03.355 1.096 8.766h1.688V26.49a1.512 1.512 0 0 1 1.334-1.501l.177-.011h15.111a1.512 1.512 0 0 1 1.501 1.335l.011.177v1.511h1.688l1.096-8.766a4.486 4.486 0 0 0-.124-1.758zM9.203 20.29l4.145 2.239c.564.305.329 1.162-.311 1.136l-3.497-.14a1.51 1.51 0 0 1-1.451-1.51v-1.058a.758.758 0 0 1 .368-.649.754.754 0 0 1 .746-.015l-.002-.003zm20.04.665v1.059c0 .39-.151.766-.421 1.048s-.639.448-1.03.463l-3.497.139c-.641.026-.877-.831-.311-1.136l4.143-2.236a.757.757 0 0 1 1.115.664zM24.469 8.356H12.864a1.517 1.517 0 0 0-1.311.761l-2.59 4.533a1.514 1.514 0 0 0 .558 2.059c.23.132.489.202.754.202H27.06a1.51 1.51 0 0 0 1.312-2.261l-2.59-4.533a1.506 1.506 0 0 0-1.312-.762z"/></symbol><symbol id="icon-normal" viewBox="0 0 32 32"><path stroke-linecap="round" stroke-linejoin="round" stroke-width="2.667" d="M27.787 6.147a7.345 7.345 0 0 0-5.187-2.15 7.33 7.33 0 0 0-5.187 2.15L16 7.56l-1.413-1.413a7.333 7.333 0 0 0-10.374 0 7.333 7.333 0 0 0 0 10.374L16 28.308l11.787-11.787a7.345 7.345 0 0 0 2.15-5.187 7.33 7.33 0 0 0-2.15-5.187z"/></symbol></defs></svg>